<svg width="1229" height="1124" viewBox="0 0 1229 1124" fill="none" xmlns="http://www.w3.org/2000/svg">
<path d="M515.625 1016.29V656.5L293.333 878.792L245.208 830.667L501.875 574L245.208 317.333L293.333 269.208L515.625 491.5V131.708H550L795.208 376.917L598.125 574L795.208 771.083L550 1016.29H515.625ZM584.375 491.5L698.958 376.917L584.375 264.625V491.5ZM584.375 883.375L698.958 771.083L584.375 656.5V883.375Z" fill="white"/>
<path d="M1227.13 1004.59V998.047H1228.13V1004.59H1227.13ZM1227.64 996.956C1227.44 996.956 1227.27 996.889 1227.13 996.756C1226.99 996.622 1226.92 996.462 1226.92 996.274C1226.92 996.087 1226.99 995.926 1227.13 995.793C1227.27 995.659 1227.44 995.592 1227.64 995.592C1227.83 995.592 1228 995.659 1228.14 995.793C1228.28 995.926 1228.35 996.087 1228.35 996.274C1228.35 996.462 1228.28 996.622 1228.14 996.756C1228 996.889 1227.83 996.956 1227.64 996.956Z" fill="black"/>
<path d="M475.254 691.976C474.692 691.976 474.19 691.879 473.75 691.686C473.312 691.493 472.964 691.224 472.706 690.88C472.45 690.534 472.311 690.132 472.288 689.674H473.362C473.385 689.956 473.481 690.199 473.652 690.403C473.822 690.605 474.045 690.761 474.321 690.872C474.596 690.983 474.902 691.038 475.237 691.038C475.612 691.038 475.944 690.973 476.234 690.842C476.524 690.711 476.751 690.53 476.916 690.297C477.081 690.064 477.163 689.794 477.163 689.487C477.163 689.166 477.084 688.883 476.925 688.639C476.765 688.392 476.532 688.199 476.226 688.059C475.919 687.92 475.544 687.851 475.101 687.851H474.402V686.913H475.101C475.447 686.913 475.751 686.851 476.013 686.726C476.277 686.601 476.483 686.424 476.63 686.197C476.781 685.97 476.856 685.703 476.856 685.396C476.856 685.101 476.791 684.843 476.66 684.625C476.53 684.406 476.345 684.235 476.106 684.113C475.871 683.991 475.592 683.93 475.271 683.93C474.97 683.93 474.686 683.985 474.419 684.096C474.155 684.204 473.939 684.362 473.771 684.569C473.603 684.774 473.513 685.021 473.498 685.311H472.476C472.493 684.853 472.63 684.453 472.889 684.109C473.148 683.762 473.486 683.493 473.903 683.299C474.324 683.106 474.785 683.01 475.288 683.01C475.828 683.01 476.291 683.119 476.677 683.338C477.064 683.554 477.361 683.839 477.568 684.194C477.775 684.549 477.879 684.933 477.879 685.345C477.879 685.836 477.75 686.255 477.491 686.602C477.236 686.949 476.888 687.189 476.447 687.322V687.39C476.998 687.481 477.429 687.716 477.738 688.093C478.048 688.468 478.203 688.933 478.203 689.487C478.203 689.961 478.074 690.387 477.815 690.765C477.559 691.14 477.21 691.436 476.767 691.652C476.324 691.868 475.819 691.976 475.254 691.976ZM479.946 691.856V691.089L482.827 687.936C483.165 687.566 483.443 687.245 483.662 686.973C483.88 686.697 484.042 686.439 484.148 686.197C484.255 685.953 484.309 685.697 484.309 685.43C484.309 685.123 484.236 684.858 484.088 684.633C483.943 684.409 483.744 684.235 483.491 684.113C483.238 683.991 482.954 683.93 482.639 683.93C482.304 683.93 482.011 684 481.761 684.139C481.514 684.275 481.322 684.467 481.186 684.714C481.052 684.961 480.986 685.251 480.986 685.583H479.98C479.98 685.072 480.098 684.623 480.334 684.237C480.569 683.851 480.89 683.549 481.297 683.333C481.706 683.118 482.165 683.01 482.673 683.01C483.184 683.01 483.638 683.118 484.032 683.333C484.427 683.549 484.737 683.841 484.961 684.207C485.186 684.574 485.298 684.981 485.298 685.43C485.298 685.751 485.24 686.065 485.123 686.372C485.01 686.676 484.811 687.015 484.527 687.39C484.246 687.762 483.855 688.217 483.355 688.754L481.395 690.851V690.919H485.452V691.856H479.946Z" fill="black"/>
</svg>
